<?xml version="1.0" encoding="UTF-8" standalone="no"?>
<svg
   xmlns:dc="http://purl.org/dc/elements/1.1/"
   xmlns:cc="http://creativecommons.org/ns#"
   xmlns:rdf="http://www.w3.org/1999/02/22-rdf-syntax-ns#"
   xmlns:svg="http://www.w3.org/2000/svg"
   xmlns="http://www.w3.org/2000/svg"
   xmlns:sodipodi="http://sodipodi.sourceforge.net/DTD/sodipodi-0.dtd"
   xmlns:inkscape="http://www.inkscape.org/namespaces/inkscape"
   width="168"
   height="26"
   viewBox="0 0 168 26"
   fill="none"
   version="1.1"
   id="svg8"
   sodipodi:docname="dark-rtl-logo.svg"
   inkscape:version="1.0.2-2 (e86c870879, 2021-01-15)">
  <metadata
     id="metadata14">
    <rdf:RDF>
      <cc:Work
         rdf:about="">
        <dc:format>image/svg+xml</dc:format>
        <dc:type
           rdf:resource="http://purl.org/dc/dcmitype/StillImage" />
      </cc:Work>
    </rdf:RDF>
  </metadata>
  <defs
     id="defs12" />
  <sodipodi:namedview
     pagecolor="#ffffff"
     bordercolor="#666666"
     borderopacity="1"
     objecttolerance="10"
     gridtolerance="10"
     guidetolerance="10"
     inkscape:pageopacity="0"
     inkscape:pageshadow="2"
     inkscape:window-width="1536"
     inkscape:window-height="793"
     id="namedview10"
     showgrid="false"
     inkscape:zoom="4.5372685"
     inkscape:cx="104.78599"
     inkscape:cy="1.4719524"
     inkscape:window-x="-8"
     inkscape:window-y="193"
     inkscape:window-maximized="1"
     inkscape:current-layer="svg8" />
  <path
     d="M154.137 26C156.898 26 159.184 23.7425 158.673 21.0288C158.353 19.3274 157.868 17.6594 157.223 16.0502C155.96 12.8958 154.109 10.0295 151.774 7.61522C149.44 5.2009 146.669 3.28575 143.619 1.97913C142.114 1.33406 140.555 0.843538 138.965 0.512196C136.262 -0.0511821 134 2.23858 134 5V21C134 23.7614 136.239 26 139 26H154.137Z"
     fill="#615DFF"
     id="path4" />
  <path
     d="M147.701 26C144.94 26 142.654 23.7425 143.165 21.0288C143.485 19.3274 143.97 17.6594 144.615 16.0502C145.878 12.8958 147.73 10.0295 150.064 7.61522C152.398 5.2009 155.169 3.28575 158.219 1.97913C159.724 1.33406 161.283 0.843538 162.873 0.512196C165.577 -0.0511821 167.838 2.23858 167.838 5V21C167.838 23.7614 165.6 26 162.838 26H147.701Z"
     fill="#3DD9EB"
     id="path6" />
  <text
     xml:space="preserve"
     style="font-style:normal;font-weight:normal;font-size:18.1209px;line-height:1.25;font-family:sans-serif;fill:#ececec;fill-opacity:1;stroke:none;stroke-width:0.453023"
     x="3.3708982"
     y="20.067022"
     id="text20"><tspan
       sodipodi:role="line"
       id="tspan18"
       x="3.3708982"
       y="20.067022"
       style="font-style:normal;font-variant:normal;font-weight:bold;font-stretch:normal;font-family:sans-serif;-inkscape-font-specification:'sans-serif Bold';fill:#ececec;stroke-width:0.453023">Value Studio</tspan></text>
</svg>
