<?xml version="1.0" encoding="UTF-8" standalone="no"?>
<svg
   xmlns:dc="http://purl.org/dc/elements/1.1/"
   xmlns:cc="http://creativecommons.org/ns#"
   xmlns:rdf="http://www.w3.org/1999/02/22-rdf-syntax-ns#"
   xmlns:svg="http://www.w3.org/2000/svg"
   xmlns="http://www.w3.org/2000/svg"
   xmlns:sodipodi="http://sodipodi.sourceforge.net/DTD/sodipodi-0.dtd"
   xmlns:inkscape="http://www.inkscape.org/namespaces/inkscape"
   width="168"
   height="26"
   viewBox="0 0 168 26"
   fill="none"
   version="1.1"
   id="svg8"
   sodipodi:docname="light-logo-rtl.svg"
   inkscape:version="1.0.2-2 (e86c870879, 2021-01-15)">
  <metadata
     id="metadata14">
    <rdf:RDF>
      <cc:Work
         rdf:about="">
        <dc:format>image/svg+xml</dc:format>
        <dc:type
           rdf:resource="http://purl.org/dc/dcmitype/StillImage" />
      </cc:Work>
    </rdf:RDF>
  </metadata>
  <defs
     id="defs12" />
  <sodipodi:namedview
     pagecolor="#ffffff"
     bordercolor="#666666"
     borderopacity="1"
     objecttolerance="10"
     gridtolerance="10"
     guidetolerance="10"
     inkscape:pageopacity="0"
     inkscape:pageshadow="2"
     inkscape:window-width="1536"
     inkscape:window-height="793"
     id="namedview10"
     showgrid="false"
     inkscape:zoom="4.5372685"
     inkscape:cx="104.59233"
     inkscape:cy="-15.062404"
     inkscape:window-x="-8"
     inkscape:window-y="193"
     inkscape:window-maximized="1"
     inkscape:current-layer="svg8" />
  <path
     d="M153.838 26C156.6 26 158.885 23.7425 158.374 21.0288C158.054 19.3274 157.569 17.6594 156.925 16.0502C155.661 12.8958 153.81 10.0295 151.476 7.61522C149.142 5.2009 146.37 3.28575 143.321 1.97913C141.815 1.33406 140.256 0.843538 138.666 0.512196C135.963 -0.0511821 133.701 2.23858 133.701 5V21C133.701 23.7614 135.94 26 138.701 26H153.838Z"
     fill="#615DFF"
     id="path4" />
  <path
     d="M147.403 26C144.641 26 142.355 23.7425 142.866 21.0288C143.187 19.3274 143.672 17.6594 144.316 16.0502C145.579 12.8958 147.431 10.0295 149.765 7.61522C152.099 5.2009 154.87 3.28575 157.92 1.97913C159.426 1.33406 160.985 0.843538 162.575 0.512196C165.278 -0.0511821 167.539 2.23858 167.539 5V21C167.539 23.7614 165.301 26 162.539 26H147.403Z"
     fill="#3DD9EB"
     id="path6" />
  <text
     xml:space="preserve"
     style="font-style:normal;font-weight:normal;font-size:18.1209px;line-height:1.25;font-family:sans-serif;fill:#333333;fill-opacity:1;stroke:none;stroke-width:0.453023"
     x="3.3819747"
     y="21.055563"
     id="text20"><tspan
       sodipodi:role="line"
       id="tspan18"
       x="3.3819747"
       y="21.055563"
       style="font-style:normal;font-variant:normal;font-weight:bold;font-stretch:normal;font-family:sans-serif;-inkscape-font-specification:'sans-serif Bold';fill:#333333;stroke-width:0.453023">Value Studio</tspan></text>
</svg>
